<?xml version="1.0" encoding="utf-8"?>
<!-- Generator: Adobe Illustrator 16.0.0, SVG Export Plug-In . SVG Version: 6.00 Build 0)  -->
<!DOCTYPE svg PUBLIC "-//W3C//DTD SVG 1.1//EN" "http://www.w3.org/Graphics/SVG/1.1/DTD/svg11.dtd">
<svg version="1.1" id="Layer_2" xmlns="http://www.w3.org/2000/svg" xmlns:xlink="http://www.w3.org/1999/xlink" x="0px" y="0px"
	 width="76px" height="228px" viewBox="0 0 76 228" enable-background="new 0 0 76 228" xml:space="preserve">
<g>
	<g>
		<rect x="17.258" y="9" fill="#808080" width="3.176" height="9.472"/>
	</g>
	<path fill="#808080" d="M22.022,11.815v3.148c1.702,1.063,2.839,2.947,2.839,5.101c0,3.321-2.693,6.015-6.016,6.015
		c-3.321,0-6.016-2.693-6.016-6.015c0-2.153,1.137-4.038,2.839-5.1v-3.148C12.354,13.093,10,16.3,10,20.063
		c0,4.885,3.96,8.846,8.846,8.846c4.885,0,8.846-3.96,8.846-8.846C27.691,16.3,25.336,13.093,22.022,11.815z"/>
</g>
<g>
	<rect x="15" y="170" width="8.855" height="2.705"/>
</g>
<path d="M28.631,47.529l-2.231,2.231c-1.739-1.706-4.12-2.76-6.75-2.76C14.32,47,10,51.32,10,56.649c0,5.328,4.32,9.648,9.649,9.648
	c2.631,0,5.013-1.056,6.753-2.763l-2.634-2.686c-1.062,1.041-2.514,1.685-4.119,1.685c-3.25,0-5.885-2.635-5.885-5.884
	c0-3.25,2.635-5.885,5.885-5.885c1.59,0,3.03,0.633,4.089,1.657L21.27,54.89h7.361V47.529z"/>
<g>
	<rect x="15" y="208.075" width="8.855" height="2.705"/>
	<rect x="18.075" y="205" width="2.705" height="8.855"/>
</g>
<g>
	<rect x="53" y="170" fill="#F5C614" width="8.855" height="2.705"/>
</g>
<g>
	<rect x="53" y="208.075" fill="#F5C614" width="8.855" height="2.705"/>
	<rect x="56.075" y="205" fill="#F5C614" width="2.705" height="8.855"/>
</g>
<g>
	<rect y="114" fill="#F5C614" width="38" height="38"/>
	<g>
		<polygon points="27.053,127.943 11.531,127.943 19.292,138.394 		"/>
	</g>
</g>
<g>
	<rect y="76" fill="#F5C614" width="38" height="38"/>
	<g>
		<g>
			<path fill="#F5C614" d="M10.501,93.076v-5.351c0-1.25,1.016-2.266,2.266-2.266h9.73c0.921,0,1.716,0.553,2.07,1.345h3.626
				c1.25,0,2.266,1.017,2.266,2.266v4.006H10.501z"/>
			<path d="M22.497,86.459c0.699,0,1.266,0.567,1.266,1.266v0.079h4.43c0.699,0,1.266,0.567,1.266,1.266v1.266v1.74H11.501v-1.74
				V89.07c0-0.027,0.006-0.053,0.008-0.08h-0.008v-1.266c0-0.699,0.566-1.266,1.266-1.266H22.497 M22.497,84.459h-9.73
				c-1.801,0-3.266,1.465-3.266,3.266v1.266v2v1.085v2h2h17.957h2v-2v-1.74V89.07c0-1.801-1.465-3.266-3.266-3.266h-3.056
				C24.542,84.99,23.58,84.459,22.497,84.459L22.497,84.459z"/>
		</g>
		<g>
			<path fill="#F5C614" d="M12.767,101.541c-1.25,0-2.266-1.016-2.266-2.266v-7.752c0-1.25,1.016-2.266,2.266-2.266h5.3
				c0.146,0,0.266-0.119,0.266-0.266h0.001c0.042-1.213,1.042-2.187,2.264-2.187h7.594c1.25,0,2.266,1.017,2.266,2.266v10.205
				c0,1.25-1.016,2.266-2.266,2.266H12.767z"/>
			<path d="M28.192,87.804c0.699,0,1.266,0.567,1.266,1.266v1.266v7.673v1.266c0,0.699-0.566,1.266-1.266,1.266H12.767
				c-0.699,0-1.266-0.567-1.266-1.266v-1.266v-5.221v-0.396v-0.87c0-0.699,0.566-1.266,1.266-1.266h5.3
				c0.699,0,1.266-0.567,1.266-1.266v0.08c0-0.699,0.567-1.266,1.266-1.266H28.192 M28.192,85.804h-7.594
				c-1.52,0-2.801,1.044-3.163,2.453h-4.668c-1.801,0-3.266,1.465-3.266,3.266v0.87v0.396v5.221v1.266
				c0,1.801,1.465,3.266,3.266,3.266h15.426c1.801,0,3.266-1.465,3.266-3.266v-1.266v-7.673V89.07
				C31.458,87.27,29.993,85.804,28.192,85.804L28.192,85.804z"/>
		</g>
	</g>
</g>
<g>
	<g>
		<rect x="55.258" y="9" width="3.176" height="9.472"/>
	</g>
	<path d="M60.022,11.815v3.148c1.702,1.063,2.839,2.947,2.839,5.101c0,3.321-2.693,6.015-6.016,6.015
		c-3.321,0-6.016-2.693-6.016-6.015c0-2.153,1.137-4.038,2.839-5.1v-3.148C50.354,13.093,48,16.3,48,20.063
		c0,4.885,3.96,8.846,8.846,8.846c4.885,0,8.846-3.96,8.846-8.846C65.691,16.3,63.336,13.093,60.022,11.815z"/>
</g>
<path fill="#F5C614" d="M66.631,47.529l-2.231,2.231c-1.739-1.706-4.12-2.76-6.75-2.76C52.32,47,48,51.32,48,56.649
	c0,5.328,4.32,9.648,9.649,9.648c2.631,0,5.013-1.056,6.753-2.763l-2.634-2.686c-1.062,1.041-2.514,1.685-4.119,1.685
	c-3.25,0-5.885-2.635-5.885-5.884c0-3.25,2.635-5.885,5.885-5.885c1.59,0,3.03,0.633,4.089,1.657L59.27,54.89h7.361V47.529z"/>
<g>
	<rect x="38" y="114" width="38" height="38"/>
	<g>
		<polygon fill="#F5C614" points="65.053,127.943 49.531,127.943 57.292,138.394 		"/>
	</g>
</g>
<g>
	<rect x="38" y="76" width="38" height="38"/>
	<g>
		<g>
			<path d="M48.501,93.076v-5.351c0-1.25,1.016-2.266,2.266-2.266h9.73c0.921,0,1.716,0.553,2.07,1.345h3.626
				c1.25,0,2.266,1.017,2.266,2.266v4.006H48.501z"/>
			<path fill="#F5C614" d="M60.497,86.459c0.699,0,1.266,0.567,1.266,1.266v0.079h4.43c0.699,0,1.266,0.567,1.266,1.266v1.266v1.74
				H49.501v-1.74V89.07c0-0.027,0.006-0.053,0.008-0.08h-0.008v-1.266c0-0.699,0.566-1.266,1.266-1.266H60.497 M60.497,84.459h-9.73
				c-1.801,0-3.266,1.465-3.266,3.266v1.266v2v1.085v2h2h17.957h2v-2v-1.74V89.07c0-1.801-1.465-3.266-3.266-3.266h-3.056
				C62.542,84.99,61.58,84.459,60.497,84.459L60.497,84.459z"/>
		</g>
		<g>
			<path d="M50.767,101.541c-1.25,0-2.266-1.016-2.266-2.266v-7.752c0-1.25,1.016-2.266,2.266-2.266h5.3
				c0.146,0,0.266-0.119,0.266-0.266h0.001c0.042-1.213,1.042-2.187,2.264-2.187h7.594c1.25,0,2.266,1.017,2.266,2.266v10.205
				c0,1.25-1.016,2.266-2.266,2.266H50.767z"/>
			<path fill="#F5C614" d="M66.192,87.804c0.699,0,1.266,0.567,1.266,1.266v1.266v7.673v1.266c0,0.699-0.566,1.266-1.266,1.266
				H50.767c-0.699,0-1.266-0.567-1.266-1.266v-1.266v-5.221v-0.396v-0.87c0-0.699,0.566-1.266,1.266-1.266h5.3
				c0.699,0,1.266-0.567,1.266-1.266v0.08c0-0.699,0.567-1.266,1.266-1.266H66.192 M66.192,85.804h-7.594
				c-1.52,0-2.801,1.044-3.163,2.453h-4.668c-1.801,0-3.266,1.465-3.266,3.266v0.87v0.396v5.221v1.266
				c0,1.801,1.465,3.266,3.266,3.266h15.426c1.801,0,3.266-1.465,3.266-3.266v-1.266v-7.673V89.07
				C69.458,87.27,67.993,85.804,66.192,85.804L66.192,85.804z"/>
		</g>
	</g>
</g>
</svg>
